<svg class="position-absolute" xmlns="http://www.w3.org/2000/svg" xmlns:xlink="http://www.w3.org/1999/xlink" width="50" zoomAndPan="magnify" viewBox="0 0 768 767.999994" height="50" preserveAspectRatio="xMidYMid meet" version="1.0">
	<defs>
		<g />
		<clipPath id="f3dfdbafa4">
			<path d="M 185 0 L 583 0 L 583 588.75 L 185 588.75 Z M 185 0 " clip-rule="nonzero" />
		</clipPath>
	</defs>
	<rect x="-76.8" width="921.6" fill="#ffffff" y="-76.799999" height="921.599993" fill-opacity="0" />
	<rect x="-76.8" width="921.6" fill="#ffffff" y="-76.799999" height="921.599993" fill-opacity="0" />
	<g clip-path="url(#f3dfdbafa4)">
		<path fill="#ffde59" d="M 366.800781 1.269531 C 339.675781 4.429688 316.859375 11.035156 295.757812 21.511719 C 239.648438 49.792969 201.898438 99.03125 188.550781 161.628906 C 184.242188 182.445312 184.242188 217.476562 188.550781 238.292969 C 201.179688 297.292969 236.769531 346.105469 287.574219 373.957031 C 295.324219 378.265625 297.765625 380.273438 297.332031 382.140625 C 296.757812 383.867188 256.714844 556.714844 250.6875 583.558594 C 249.683594 587.582031 249.828125 588.726562 251.121094 588.007812 C 251.984375 587.429688 283.265625 565.464844 320.4375 539.050781 L 388.328125 491.246094 L 456.640625 539.484375 C 494.238281 566.039062 525.238281 587.574219 525.382812 587.289062 C 525.957031 586.855469 522.226562 568.480469 497.539062 447.3125 C 489.503906 408.554688 483.046875 375.820312 483.046875 374.671875 C 483.046875 373.664062 488.355469 369.21875 494.8125 364.90625 C 509.738281 355.144531 532.273438 333.609375 544.039062 317.964844 C 560.835938 295.566406 573.171875 267.714844 579.34375 238.285156 C 583.507812 219.046875 583.792969 185.453125 580.207031 165.5 C 568.292969 101.476562 527.390625 47.785156 469.554688 20.511719 C 451.328125 11.898438 441.28125 8.449219 422.628906 4.71875 C 408.277344 1.703125 378.140625 -0.0195312 366.800781 1.269531 Z M 400.667969 53.527344 C 451.039062 59.847656 493.375 89.707031 515.910156 134.785156 C 551.789062 206.996094 522.226562 295 449.75 331.464844 C 393.210938 359.890625 324.894531 348.839844 279.976562 304.042969 C 230.605469 254.65625 222.570312 177.710938 260.75 119.710938 C 291.742188 72.625 346.566406 46.78125 400.667969 53.527344 Z M 400.667969 53.527344 " fill-opacity="1" fill-rule="nonzero" />
	</g>
	<path fill="#ffde59" d="M 372.828125 131.769531 L 362.351562 164.070312 L 327.765625 164.355469 L 293.039062 164.789062 L 320.59375 184.742188 C 335.804688 195.792969 348.148438 205.414062 348.148438 206.132812 C 348.148438 206.851562 343.703125 221.492188 338.097656 238.574219 C 332.648438 255.800781 328.050781 270.160156 328.050781 270.730469 C 328.050781 271.304688 339.964844 262.980469 354.601562 252.210938 C 369.238281 241.589844 382.011719 232.546875 383.019531 232.113281 C 384.023438 231.824219 397.085938 240.4375 412.003906 251.496094 C 427.074219 262.40625 439.417969 271.167969 439.703125 271.023438 C 439.992188 270.738281 435.683594 256.382812 430.085938 239.148438 C 424.492188 221.78125 419.894531 206.996094 419.894531 206.273438 C 419.894531 205.414062 432.382812 195.796875 447.449219 184.882812 L 475.148438 164.789062 L 440.421875 164.355469 L 405.546875 164.070312 L 395.21875 131.769531 C 389.476562 113.96875 384.457031 99.46875 384.023438 99.46875 C 383.449219 99.46875 378.429688 113.96875 372.828125 131.769531 Z M 372.828125 131.769531 " fill-opacity="1" fill-rule="nonzero" />
	<g fill="#ffde59" fill-opacity="1">
		<g transform="translate(261.755848, 739.678039)">
			<g>
				<path d="M 11.484375 0 L 11.484375 -15.6875 L 55.546875 -15.6875 L 55.546875 -139.140625 L 53 -139.796875 C 45.863281 -136.265625 39.609375 -133.5625 34.234375 -131.6875 C 28.859375 -129.8125 21.972656 -127.988281 13.578125 -126.21875 L 13.578125 -143.671875 C 21.898438 -145.429688 30.128906 -147.820312 38.265625 -150.84375 C 46.398438 -153.863281 53.78125 -157.398438 60.40625 -161.453125 L 74.09375 -161.453125 L 74.09375 -15.6875 L 113.515625 -15.6875 L 113.515625 0 Z M 11.484375 0 " />
			</g>
		</g>
		<g transform="translate(382.121544, 739.678039)">
			<g>
				<path d="M 9.71875 -7.40625 C 9.71875 -16.3125 10.691406 -23.488281 12.640625 -28.9375 C 14.597656 -34.382812 17.929688 -39.460938 22.640625 -44.171875 C 27.347656 -48.878906 34.859375 -54.988281 45.171875 -62.5 L 62.9375 -75.421875 C 69.488281 -80.203125 74.828125 -84.617188 78.953125 -88.671875 C 83.078125 -92.722656 86.332031 -97.125 88.71875 -101.875 C 91.113281 -106.625 92.3125 -111.941406 92.3125 -117.828125 C 92.3125 -127.398438 89.769531 -134.613281 84.6875 -139.46875 C 79.613281 -144.332031 71.664062 -146.765625 60.84375 -146.765625 C 52.300781 -146.765625 44.71875 -144.773438 38.09375 -140.796875 C 31.46875 -136.816406 26.171875 -131.1875 22.203125 -123.90625 L 19.65625 -123.453125 L 8.28125 -135.390625 C 13.726562 -144.222656 20.882812 -151.160156 29.75 -156.203125 C 38.625 -161.242188 48.988281 -163.765625 60.84375 -163.765625 C 72.332031 -163.765625 81.867188 -161.8125 89.453125 -157.90625 C 97.035156 -154.007812 102.628906 -148.617188 106.234375 -141.734375 C 109.835938 -134.847656 111.640625 -126.878906 111.640625 -117.828125 C 111.640625 -110.609375 110.128906 -103.867188 107.109375 -97.609375 C 104.097656 -91.359375 99.828125 -85.472656 94.296875 -79.953125 C 88.773438 -74.429688 81.859375 -68.613281 73.546875 -62.5 L 55.546875 -49.359375 C 48.847656 -44.429688 43.691406 -40.234375 40.078125 -36.765625 C 36.472656 -33.304688 33.84375 -29.9375 32.1875 -26.65625 C 30.53125 -23.382812 29.703125 -19.726562 29.703125 -15.6875 L 111.640625 -15.6875 L 111.640625 0 L 9.71875 0 Z M 9.71875 -7.40625 " />
			</g>
		</g>
	</g>
</svg>
