<svg class="position-absolute"  xmlns="http://www.w3.org/2000/svg" xmlns:xlink="http://www.w3.org/1999/xlink" width="50" zoomAndPan="magnify" viewBox="0 0 768 767.999994" height="50" preserveAspectRatio="xMidYMid meet" version="1.0">
	<defs>
		<g />
		<clipPath id="08bdfec2f7">
			<path d="M 185 0 L 583 0 L 583 588.75 L 185 588.75 Z M 185 0 " clip-rule="nonzero" />
		</clipPath>
	</defs>
	<rect x="-76.8" width="921.6" fill="#ffffff" y="-76.799999" height="921.599993" fill-opacity="0" />
	<rect x="-76.8" width="921.6" fill="#ffffff" y="-76.799999" height="921.599993" fill-opacity="0" />
	<g clip-path="url(#08bdfec2f7)">
		<path fill="#ffde59" d="M 366.800781 1.269531 C 339.675781 4.429688 316.859375 11.035156 295.757812 21.511719 C 239.648438 49.796875 201.898438 99.03125 188.550781 161.628906 C 184.242188 182.445312 184.242188 217.476562 188.550781 238.292969 C 201.179688 297.292969 236.769531 346.105469 287.574219 373.957031 C 295.324219 378.265625 297.765625 380.273438 297.332031 382.140625 C 296.757812 383.867188 256.714844 556.714844 250.6875 583.558594 C 249.683594 587.582031 249.828125 588.726562 251.121094 588.007812 C 251.984375 587.433594 283.265625 565.464844 320.4375 539.050781 L 388.328125 491.246094 L 456.640625 539.484375 C 494.238281 566.039062 525.238281 587.574219 525.382812 587.289062 C 525.957031 586.855469 522.226562 568.480469 497.539062 447.3125 C 489.503906 408.554688 483.046875 375.820312 483.046875 374.671875 C 483.046875 373.664062 488.355469 369.21875 494.8125 364.90625 C 509.738281 355.144531 532.273438 333.609375 544.039062 317.964844 C 560.835938 295.566406 573.171875 267.714844 579.34375 238.289062 C 583.507812 219.046875 583.792969 185.453125 580.207031 165.5 C 568.292969 101.476562 527.390625 47.785156 469.554688 20.511719 C 451.328125 11.898438 441.28125 8.453125 422.628906 4.71875 C 408.277344 1.703125 378.140625 -0.0195312 366.800781 1.269531 Z M 400.667969 53.527344 C 451.039062 59.847656 493.375 89.707031 515.910156 134.785156 C 551.789062 206.996094 522.226562 295 449.75 331.464844 C 393.210938 359.890625 324.894531 348.839844 279.976562 304.042969 C 230.605469 254.65625 222.570312 177.710938 260.75 119.710938 C 291.742188 72.625 346.566406 46.78125 400.667969 53.527344 Z M 400.667969 53.527344 " fill-opacity="1" fill-rule="nonzero" />
	</g>
	<path fill="#ffde59" d="M 372.828125 131.769531 L 362.351562 164.070312 L 327.765625 164.355469 L 293.039062 164.789062 L 320.59375 184.742188 C 335.804688 195.792969 348.148438 205.414062 348.148438 206.132812 C 348.148438 206.851562 343.703125 221.492188 338.097656 238.574219 C 332.648438 255.800781 328.050781 270.160156 328.050781 270.730469 C 328.050781 271.304688 339.964844 262.980469 354.601562 252.210938 C 369.238281 241.589844 382.011719 232.546875 383.019531 232.113281 C 384.023438 231.828125 397.085938 240.4375 412.003906 251.496094 C 427.074219 262.40625 439.417969 271.167969 439.703125 271.023438 C 439.992188 270.738281 435.683594 256.382812 430.085938 239.148438 C 424.492188 221.78125 419.894531 206.996094 419.894531 206.277344 C 419.894531 205.414062 432.382812 195.796875 447.449219 184.882812 L 475.148438 164.789062 L 440.421875 164.355469 L 405.546875 164.070312 L 395.21875 131.769531 C 389.476562 113.96875 384.457031 99.46875 384.023438 99.46875 C 383.449219 99.46875 378.429688 113.96875 372.828125 131.769531 Z M 372.828125 131.769531 " fill-opacity="1" fill-rule="nonzero" />
	<g fill="#ffde59" fill-opacity="1">
		<g transform="translate(257.009757, 739.678111)">
			<g>
				<path d="M 11.484375 0 L 11.484375 -15.6875 L 55.546875 -15.6875 L 55.546875 -139.140625 L 53 -139.796875 C 45.863281 -136.265625 39.609375 -133.5625 34.234375 -131.6875 C 28.859375 -129.8125 21.972656 -127.988281 13.578125 -126.21875 L 13.578125 -143.671875 C 21.898438 -145.429688 30.128906 -147.820312 38.265625 -150.84375 C 46.398438 -153.863281 53.78125 -157.398438 60.40625 -161.453125 L 74.09375 -161.453125 L 74.09375 -15.6875 L 113.515625 -15.6875 L 113.515625 0 Z M 11.484375 0 " />
			</g>
		</g>
		<g transform="translate(377.375453, 739.678111)">
			<g>
				<path d="M 66.484375 2.3125 C 51.390625 2.3125 39.332031 -1.035156 30.3125 -7.734375 C 21.289062 -14.429688 15.421875 -23.925781 12.703125 -36.21875 L 26.71875 -42.625 L 29.265625 -42.1875 C 31.109375 -35.925781 33.519531 -30.804688 36.5 -26.828125 C 39.476562 -22.859375 43.394531 -19.859375 48.25 -17.828125 C 53.113281 -15.804688 59.191406 -14.796875 66.484375 -14.796875 C 77.378906 -14.796875 85.863281 -18.050781 91.9375 -24.5625 C 98.007812 -31.082031 101.046875 -40.5625 101.046875 -53 C 101.046875 -65.664062 98.0625 -75.289062 92.09375 -81.875 C 86.132812 -88.46875 77.890625 -91.765625 67.359375 -91.765625 C 59.335938 -91.765625 52.820312 -90.144531 47.8125 -86.90625 C 42.8125 -83.664062 38.394531 -78.695312 34.5625 -72 L 19.328125 -73.328125 L 22.421875 -161.453125 L 112.859375 -161.453125 L 112.859375 -145.328125 L 38.984375 -145.328125 L 37.109375 -91.765625 L 39.421875 -91.328125 C 43.253906 -96.921875 47.910156 -101.097656 53.390625 -103.859375 C 58.878906 -106.617188 65.453125 -108 73.109375 -108 C 82.742188 -108 91.148438 -105.84375 98.328125 -101.53125 C 105.515625 -97.226562 111.078125 -90.953125 115.015625 -82.703125 C 118.953125 -74.460938 120.921875 -64.5625 120.921875 -53 C 120.921875 -41.519531 118.65625 -31.617188 114.125 -23.296875 C 109.59375 -14.984375 103.222656 -8.632812 95.015625 -4.25 C 86.804688 0.125 77.296875 2.3125 66.484375 2.3125 Z M 66.484375 2.3125 " />
			</g>
		</g>
	</g>
</svg>
