<svg xmlns="http://www.w3.org/2000/svg" xmlns:xlink="http://www.w3.org/1999/xlink" width="1024" zoomAndPan="magnify" viewBox="0 0 768 767.999994" height="1024" preserveAspectRatio="xMidYMid meet" version="1.0">
	<defs>
		<g />
		<clipPath id="977e9b283d">
			<path d="M 185 0 L 583 0 L 583 588.75 L 185 588.75 Z M 185 0 " clip-rule="nonzero" />
		</clipPath>
	</defs>
	<rect x="-76.8" width="921.6" fill="#ffffff" y="-76.799999" height="921.599993" fill-opacity="1" />
	<rect x="-76.8" width="921.6" fill="#ffffff" y="-76.799999" height="921.599993" fill-opacity="1" />
	<rect x="-76.8" width="921.6" fill="#ffffff" y="-76.799999" height="921.599993" fill-opacity="1" />
	<g clip-path="url(#977e9b283d)">
		<path fill="#ffde59" d="M 366.800781 1.269531 C 339.675781 4.429688 316.859375 11.035156 295.757812 21.511719 C 239.648438 49.792969 201.898438 99.03125 188.550781 161.628906 C 184.242188 182.445312 184.242188 217.476562 188.550781 238.292969 C 201.179688 297.292969 236.769531 346.105469 287.574219 373.957031 C 295.324219 378.265625 297.765625 380.273438 297.332031 382.140625 C 296.757812 383.867188 256.714844 556.714844 250.6875 583.558594 C 249.683594 587.582031 249.828125 588.726562 251.121094 588.007812 C 251.984375 587.429688 283.265625 565.464844 320.4375 539.050781 L 388.328125 491.246094 L 456.640625 539.484375 C 494.238281 566.039062 525.238281 587.574219 525.382812 587.289062 C 525.957031 586.855469 522.226562 568.480469 497.539062 447.3125 C 489.503906 408.554688 483.046875 375.820312 483.046875 374.671875 C 483.046875 373.664062 488.355469 369.21875 494.8125 364.90625 C 509.738281 355.144531 532.273438 333.609375 544.039062 317.964844 C 560.835938 295.566406 573.171875 267.714844 579.34375 238.285156 C 583.507812 219.046875 583.792969 185.453125 580.207031 165.5 C 568.292969 101.476562 527.390625 47.785156 469.554688 20.511719 C 451.328125 11.898438 441.28125 8.449219 422.628906 4.71875 C 408.277344 1.703125 378.140625 -0.0195312 366.800781 1.269531 Z M 400.667969 53.527344 C 451.039062 59.847656 493.375 89.707031 515.910156 134.785156 C 551.789062 206.996094 522.226562 295 449.75 331.464844 C 393.210938 359.890625 324.894531 348.839844 279.976562 304.042969 C 230.605469 254.65625 222.570312 177.710938 260.75 119.710938 C 291.742188 72.625 346.566406 46.78125 400.667969 53.527344 Z M 400.667969 53.527344 " fill-opacity="1" fill-rule="nonzero" />
	</g>
	<path fill="#ffde59" d="M 372.828125 131.769531 L 362.351562 164.070312 L 327.765625 164.355469 L 293.039062 164.789062 L 320.59375 184.742188 C 335.804688 195.792969 348.148438 205.414062 348.148438 206.132812 C 348.148438 206.851562 343.703125 221.492188 338.097656 238.574219 C 332.648438 255.800781 328.050781 270.160156 328.050781 270.730469 C 328.050781 271.304688 339.964844 262.980469 354.601562 252.210938 C 369.238281 241.589844 382.011719 232.546875 383.019531 232.113281 C 384.023438 231.824219 397.085938 240.4375 412.003906 251.496094 C 427.074219 262.40625 439.417969 271.167969 439.703125 271.023438 C 439.992188 270.734375 435.683594 256.382812 430.085938 239.148438 C 424.492188 221.78125 419.894531 206.996094 419.894531 206.273438 C 419.894531 205.414062 432.382812 195.796875 447.449219 184.882812 L 475.148438 164.789062 L 440.421875 164.355469 L 405.546875 164.070312 L 395.21875 131.769531 C 389.476562 113.96875 384.457031 99.46875 384.023438 99.46875 C 383.449219 99.46875 378.429688 113.96875 372.828125 131.769531 Z M 372.828125 131.769531 " fill-opacity="1" fill-rule="nonzero" />
	<g fill="#ffde59" fill-opacity="1">
		<g transform="translate(251.103506, 739.677991)">
			<g>
				<path d="M 11.484375 0 L 11.484375 -15.6875 L 55.546875 -15.6875 L 55.546875 -139.140625 L 53 -139.796875 C 45.863281 -136.265625 39.609375 -133.5625 34.234375 -131.6875 C 28.859375 -129.8125 21.972656 -127.988281 13.578125 -126.21875 L 13.578125 -143.671875 C 21.898438 -145.429688 30.128906 -147.820312 38.265625 -150.84375 C 46.398438 -153.863281 53.78125 -157.398438 60.40625 -161.453125 L 74.09375 -161.453125 L 74.09375 -15.6875 L 113.515625 -15.6875 L 113.515625 0 Z M 11.484375 0 " />
			</g>
		</g>
		<g transform="translate(371.469201, 739.677991)">
			<g>
				<path d="M 77.078125 2.3125 C 65.671875 2.3125 55.4375 -0.425781 46.375 -5.90625 C 37.320312 -11.394531 30.085938 -20.320312 24.671875 -32.6875 C 19.265625 -45.050781 16.5625 -61.0625 16.5625 -80.71875 C 16.5625 -99.789062 19.265625 -115.523438 24.671875 -127.921875 C 30.085938 -140.328125 37.46875 -149.398438 46.8125 -155.140625 C 56.164062 -160.890625 66.84375 -163.765625 78.84375 -163.765625 C 99.53125 -163.765625 114.769531 -157.46875 124.5625 -144.875 L 115.28125 -132.40625 L 112.53125 -132.40625 C 104.570312 -141.976562 93.34375 -146.765625 78.84375 -146.765625 C 64.851562 -146.765625 54.175781 -141.476562 46.8125 -130.90625 C 39.457031 -120.34375 35.78125 -103.46875 35.78125 -80.28125 L 38.09375 -79.625 C 42.507812 -88.75 48.25 -95.59375 55.3125 -100.15625 C 62.382812 -104.71875 71.078125 -107 81.390625 -107 C 91.617188 -107 100.46875 -104.828125 107.9375 -100.484375 C 115.414062 -96.140625 121.140625 -89.863281 125.109375 -81.65625 C 129.085938 -73.445312 131.078125 -63.75 131.078125 -52.5625 C 131.078125 -41.375 128.867188 -31.65625 124.453125 -23.40625 C 120.035156 -15.164062 113.757812 -8.816406 105.625 -4.359375 C 97.488281 0.0859375 87.972656 2.3125 77.078125 2.3125 Z M 77.078125 -14.796875 C 87.753906 -14.796875 96.109375 -18.035156 102.140625 -24.515625 C 108.179688 -30.992188 111.203125 -40.34375 111.203125 -52.5625 C 111.203125 -64.851562 108.179688 -74.238281 102.140625 -80.71875 C 96.109375 -87.195312 87.753906 -90.4375 77.078125 -90.4375 C 69.785156 -90.4375 63.453125 -88.945312 58.078125 -85.96875 C 52.710938 -82.988281 48.570312 -78.660156 45.65625 -72.984375 C 42.75 -67.316406 41.296875 -60.507812 41.296875 -52.5625 C 41.296875 -44.6875 42.75 -37.910156 45.65625 -32.234375 C 48.570312 -26.566406 52.710938 -22.242188 58.078125 -19.265625 C 63.453125 -16.285156 69.785156 -14.796875 77.078125 -14.796875 Z M 77.078125 -14.796875 " />
			</g>
		</g>
	</g>
</svg>
