<?xml version="1.0" encoding="UTF-8" standalone="no"?>
<svg version="1.1" xmlns="http://www.w3.org/2000/svg"
     xmlns:xlink="http://www.w3.org/1999/xlink" xml:space="preserve" xmlns:serif="http://www.serif.com/" style="fill-rule:evenodd;clip-rule:evenodd;stroke-linejoin:round;stroke-miterlimit:1.41421;">

    <symbol id="ebay" viewBox="0 0 300 121">
        <path id="e" d="M38.766,26.208c-21.145,0 -38.766,8.971 -38.766,36.037c0,21.441 11.849,34.944 39.312,34.944c32.327,0 34.399,-21.294 34.399,-21.294l-15.664,0c0,0 -3.358,11.466 -19.69,11.466c-13.302,0 -22.869,-8.986 -22.869,-21.581l59.861,0l0,-7.903c0,-12.461 -7.91,-31.669 -36.583,-31.669Zm-0.546,10.101c12.663,0 21.295,7.757 21.295,19.384l-43.681,0c0,-12.343 11.267,-19.384 22.386,-19.384Z" style="fill:currentColor;fill-rule:nonzero;"/>
        <path id="b" d="M75.338,0l0,83.597c0,4.745 -0.339,11.408 -0.339,11.408l14.94,0c0,0 0.536,-4.785 0.536,-9.159c0,0 7.381,11.548 27.451,11.548c21.135,0 35.491,-14.673 35.491,-35.695c0,-19.557 -13.187,-35.286 -35.457,-35.286c-20.854,0 -27.334,11.261 -27.334,11.261l0,-37.674l-15.288,0Zm38.766,36.753c14.352,0 23.478,10.652 23.478,24.946c0,15.327 -10.54,25.355 -23.375,25.355c-15.318,0 -23.581,-11.96 -23.581,-25.219c0,-12.354 7.414,-25.082 23.478,-25.082Z" style="fill:currentColor;fill-rule:nonzero;"/>
        <path id="a" d="M190.545,26.208c-31.812,0 -33.852,17.419 -33.852,20.203l15.834,0c0,0 0.83,-10.17 16.926,-10.17c10.459,0 18.564,4.788 18.564,13.992l0,3.276l-18.564,0c-24.645,0 -37.674,7.209 -37.674,21.84c0,14.398 12.038,22.233 28.307,22.233c22.171,0 29.313,-12.251 29.313,-12.251c0,4.872 0.376,9.674 0.376,9.674l14.076,0c0,0 -0.546,-5.952 -0.546,-9.76l0,-32.914c0,-21.581 -17.407,-26.123 -32.76,-26.123Zm17.472,37.129l0,4.368c0,5.697 -3.515,19.861 -24.212,19.861c-11.333,0 -16.192,-5.656 -16.192,-12.217c0,-11.935 16.364,-12.012 40.404,-12.012Z" style="fill:currentColor;fill-rule:nonzero;"/>
        <path id="y" d="M214.779,28.941l17.813,0l25.565,51.217l25.507,-51.217l16.136,0l-46.459,91.183l-16.926,0l13.406,-25.418l-35.042,-65.765Z" style="fill:currentColor;fill-rule:nonzero;"/>
    </symbol>

    <symbol id="onelogin-icon" viewBox="0 0 297 297">
        <path style="fill:currentColor;fill-rule:nonzero;" d="M0,148.484c0,-81.951 66.533,-148.484 148.484,-148.484c81.951,0 148.484,66.533 148.484,148.484c0,81.951 -66.533,148.484 -148.484,148.484c-81.951,0 -148.484,-66.533 -148.484,-148.484Zm167.199,59.301c2.155,0 3.905,-1.75 3.905,-3.905l0,-99.547c0,-2.155 -1.75,-3.905 -3.905,-3.905l-27.901,0c-0.311,0 -0.614,0.036 -0.904,0.105l-24.338,0c-2.206,0 -3.996,1.791 -3.996,3.996l0,28.546c0,2.205 1.79,3.995 3.996,3.995l21.337,0l0,66.81c0,2.155 1.75,3.905 3.905,3.905l27.901,0Z"/>
    </symbol>


    <!-- This is currently the same as onelogin-icon and just looks better on places like login button (see below for more info) -->
    <symbol id="onelogin" viewBox="0 0 297 297">
        <path style="fill:currentColor;fill-rule:nonzero;" d="M0,148.484c0,-81.951 66.533,-148.484 148.484,-148.484c81.951,0 148.484,66.533 148.484,148.484c0,81.951 -66.533,148.484 -148.484,148.484c-81.951,0 -148.484,-66.533 -148.484,-148.484Zm167.199,59.301c2.155,0 3.905,-1.75 3.905,-3.905l0,-99.547c0,-2.155 -1.75,-3.905 -3.905,-3.905l-27.901,0c-0.311,0 -0.614,0.036 -0.904,0.105l-24.338,0c-2.206,0 -3.996,1.791 -3.996,3.996l0,28.546c0,2.205 1.79,3.995 3.996,3.995l21.337,0l0,66.81c0,2.155 1.75,3.905 3.905,3.905l27.901,0Z"/>
    </symbol>

    <!-- This is the original OneLogin logo, that is supposed be with ID "onelogin". However it is just the text
    "onelogin" and doesn't look great in places like our login buttons -->
    <symbol id="onelogin-full" viewBox="0 0 142.8 35.2">
        <path style="fill:currentColor;fill-rule:nonzero;" d="M47.3,15.9c0.3-2,2.1-4.5,5.5-4.5c3.2,0,5,2.3,5.3,4.5H47.3z M42.9,17.5c0,5.6,4.1,9.4,10,9.4
	c3.9,0,6.5-1.9,8-3.6c0.2-0.2,0.2-0.4,0-0.6l-2.1-1.9c-0.2-0.2-0.5-0.2-0.6,0c-1.1,0.9-2.7,2.4-5.2,2.4c-2.9,0-5-1.8-5.5-4.1h14.5
	c0.4,0,0.6-0.2,0.6-0.6v-0.9c0-5.4-3.5-9.8-9.4-9.8C46.7,7.8,42.9,12.1,42.9,17.5L42.9,17.5z M65.1,26.2c0,0.3,0.2,0.5,0.5,0.5h3.1
	c0.3,0,0.5-0.2,0.5-0.5V0.4C69.1,0.2,69,0,68.7,0h-3.2c-0.3,0-0.4,0.2-0.4,0.4V26.2z M36.5,26.2c0,0.3,0.2,0.5,0.5,0.5H40
	c0.3,0,0.5-0.2,0.5-0.5V15.8c0-4.4-2.6-8-8.1-8h-0.1c-2.7,0-4.7,0.9-5.9,1.9v-1c0-0.3-0.2-0.5-0.5-0.5h-3.1c-0.3,0-0.5,0.2-0.5,0.5
	v17.4c0,0.3,0.2,0.5,0.5,0.5h3.1c0.3,0,0.5-0.2,0.5-0.5v-9.6c0-3,1.5-5.2,5.1-5.2c3.6,0,5,2.2,5,5.2V26.2z M95,31.6
	c1.4,1.7,4.4,3.7,8.6,3.7c5.9,0,9.4-3.6,9.4-9.3V8.8c0-0.3-0.2-0.5-0.5-0.5h-2.9c-0.3,0-0.5,0.2-0.5,0.5v1c-1.3-1.1-3-1.9-5.8-1.9
	c-5.3,0-9.9,3.9-9.9,9.6c0,5.8,4.5,9.6,9.9,9.6c2.6,0,4.3-0.9,5.6-1.9v1.2c0,3.2-1.9,5.4-5.4,5.4c-2.9,0-4.8-1.6-6.1-2.8
	c-0.2-0.2-0.6-0.2-0.8,0L95,30.8C94.7,31,94.7,31.3,95,31.6L95,31.6z M15.6,17.4c0,3.2-2.4,5.8-5.7,5.8s-5.5-2.8-5.5-5.8v-0.2
	c0-3.1,2.3-5.7,5.5-5.7S15.6,14.1,15.6,17.4L15.6,17.4z M0,17.4C0,22.6,4.2,27,9.9,27s9.9-4.4,9.9-9.6v-0.2c0-5.2-4.2-9.4-9.9-9.4
	S0,12,0,17.4L0,17.4z M87.1,17.4c0,3.2-2.4,5.8-5.7,5.8c-3.2,0-5.5-2.8-5.5-5.8v-0.2c0-3.1,2.3-5.7,5.5-5.7
	C84.7,11.5,87.1,14.1,87.1,17.4L87.1,17.4z M71.5,17.4c0,5.2,4.2,9.6,9.9,9.6s9.9-4.4,9.9-9.6v-0.2c0-5.2-4.2-9.4-9.9-9.4
	S71.5,12,71.5,17.4L71.5,17.4z M116.8,26.2c0,0.3,0.2,0.5,0.5,0.5h3.1c0.3,0,0.5-0.2,0.5-0.5V8.7c0-0.2-0.1-0.4-0.4-0.4h-3.2
	c-0.3,0-0.4,0.2-0.4,0.4V26.2z M116.8,3.7c0,0.3,0.2,0.5,0.5,0.5h3.1c0.3,0,0.5-0.2,0.5-0.5V0.4c0-0.2-0.1-0.4-0.4-0.4h-3.2
	c-0.3,0-0.4,0.2-0.4,0.4V3.7z M138.7,26.2c0,0.3,0.2,0.5,0.5,0.5h3.1c0.3,0,0.5-0.2,0.5-0.5V15.8c0-4.4-2.6-8-8.1-8h-0.1
	c-2.7,0-4.7,0.9-5.9,1.9v-1c0-0.3-0.2-0.5-0.5-0.5h-3.1c-0.3,0-0.5,0.2-0.5,0.5v17.4c0,0.3,0.2,0.5,0.5,0.5h3.1
	c0.3,0,0.5-0.2,0.5-0.5v-9.6c0-3,1.5-5.2,5.1-5.2c3.6,0,5,2.2,5,5.2V26.2z M109,17.4c0,3.2-2.4,5.8-5.7,5.8s-5.5-2.8-5.5-5.8v-0.2
	c0-3.1,2.3-5.7,5.5-5.7S109,14.1,109,17.4z"/>
    </symbol>


    <symbol id="ebay-icon" viewBox="0 0 640 512">
        <path style="fill:currentColor;fill-rule:nonzero;" d="M405.2 263.8c-29.1.9-47.2 6.2-47.2 25.3 0 12.4 9.9 25.8 35 25.8 33.7 0 51.6-18.4 51.6-48.4v-3.3c-11.8 0-26.3.1-39.4.6m71.5 39.7c0 9.3.3 18.6 1 26.8h-29.8c-.8-6.9-1.1-13.6-1.1-20.2-16.1 19.8-35.3 25.5-61.9 25.5-39.5 0-60.6-20.9-60.6-45 0-35 28.8-47.3 78.6-48.4 13.7-.3 29-.4 41.7-.4v-3.4c0-23.4-15-33-41-33-19.3 0-33.6 8-35 21.8h-33.7c3.6-34.4 39.7-43.1 71.5-43.1 38.1 0 70.3 13.5 70.3 53.8v65.6zm-349-56.8c-2.3-54.7-87.5-56.6-94.4 0h94.4zm-95 21.4c3.5 58.3 79.2 57.4 91.2 21.6H157c-6.4 34.4-43 46.1-74.4 46.1-57.2 0-82.5-31.5-82.5-74 0-46.8 26.2-77.6 83-77.6 45.3 0 78.4 23.7 78.4 75.4v8.5H32.7zm211 45.7c29.8 0 50.2-21.5 50.2-53.8 0-32.4-20.4-53.8-50.2-53.8-29.6 0-50.2 21.4-50.2 53.8 0 32.3 20.6 53.8 50.2 53.8m-82.2-186h32.1v80.6c15.7-18.7 37.4-24.2 58.7-24.2 35.7 0 75.4 24.1 75.4 76.2 0 43.6-31.5 75.4-76 75.4-23.3 0-45.1-8.3-58.7-24.9 0 6.6-.4 13.2-1.1 19.5h-31.5c.5-10.2 1.1-22.8 1.1-33.1V127.8zM640 189.5l-99.2 194.8h-35.9l28.5-54.1-74.6-140.7h37.5l54.9 109.9L606 189.5h34z"/>
    </symbol>

    <symbol id="apple" viewBox="0 0 376 512">
            <path style="fill:currentColor;fill-rule:nonzero;" d="M314.7 268.7c-.2-36.7 16.4-64.4 50-84.8-18.8-26.9-47.2-41.7-84.7-44.6-35.5-2.8-74.3 20.7-88.5 20.7-15 0-49.4-19.7-76.4-19.7C59.3 141.2 0 184.8 0 273.5c0 26.2 4.8 53.3 14.4 81.2 12.8 36.7 59 126.7 107.2 125.2 25.2-.6 43-17.9 75.8-17.9 31.8 0 48.3 17.9 76.4 17.9 48.6-.7 90.4-82.5 102.6-119.3-65.2-30.7-61.7-90-61.7-91.9zm-56.6-164.2c27.3-32.4 24.8-61.9 24-72.5-24.1 1.4-52 16.4-67.9 34.9-17.5 19.8-27.8 44.3-25.6 71.9 26.1 2 49.9-11.4 69.5-34.3z"/>
    </symbol>
    
    <symbol id="apple-icon" viewBox="0 0 376 512">
            <path style="fill:currentColor;fill-rule:nonzero;" d="M314.7 268.7c-.2-36.7 16.4-64.4 50-84.8-18.8-26.9-47.2-41.7-84.7-44.6-35.5-2.8-74.3 20.7-88.5 20.7-15 0-49.4-19.7-76.4-19.7C59.3 141.2 0 184.8 0 273.5c0 26.2 4.8 53.3 14.4 81.2 12.8 36.7 59 126.7 107.2 125.2 25.2-.6 43-17.9 75.8-17.9 31.8 0 48.3 17.9 76.4 17.9 48.6-.7 90.4-82.5 102.6-119.3-65.2-30.7-61.7-90-61.7-91.9zm-56.6-164.2c27.3-32.4 24.8-61.9 24-72.5-24.1 1.4-52 16.4-67.9 34.9-17.5 19.8-27.8 44.3-25.6 71.9 26.1 2 49.9-11.4 69.5-34.3z"/>
    </symbol>

    <symbol id="instagram" viewBox="0 0 448 512">
        <path style="fill:currentColor;fill-rule:nonzero;" d="M224.1 141c-63.6 0-114.9 51.3-114.9 114.9s51.3 114.9 114.9 114.9S339 319.5 339 255.9 287.7 141 224.1 141zm0 189.6c-41.1 0-74.7-33.5-74.7-74.7s33.5-74.7 74.7-74.7 74.7 33.5 74.7 74.7-33.6 74.7-74.7 74.7zm146.4-194.3c0 14.9-12 26.8-26.8 26.8-14.9 0-26.8-12-26.8-26.8s12-26.8 26.8-26.8 26.8 12 26.8 26.8zm76.1 27.2c-1.7-35.9-9.9-67.7-36.2-93.9-26.2-26.2-58-34.4-93.9-36.2-37-2.1-147.9-2.1-184.9 0-35.8 1.7-67.6 9.9-93.9 36.1s-34.4 58-36.2 93.9c-2.1 37-2.1 147.9 0 184.9 1.7 35.9 9.9 67.7 36.2 93.9s58 34.4 93.9 36.2c37 2.1 147.9 2.1 184.9 0 35.9-1.7 67.7-9.9 93.9-36.2 26.2-26.2 34.4-58 36.2-93.9 2.1-37 2.1-147.8 0-184.8zM398.8 388c-7.8 19.6-22.9 34.7-42.6 42.6-29.5 11.7-99.5 9-132.1 9s-102.7 2.6-132.1-9c-19.6-7.8-34.7-22.9-42.6-42.6-11.7-29.5-9-99.5-9-132.1s-2.6-102.7 9-132.1c7.8-19.6 22.9-34.7 42.6-42.6 29.5-11.7 99.5-9 132.1-9s102.7-2.6 132.1 9c19.6 7.8 34.7 22.9 42.6 42.6 11.7 29.5 9 99.5 9 132.1s2.7 102.7-9 132.1z"/>
    </symbol>

    <symbol id="instagram-icon" viewBox="0 0 448 512">
        <path style="fill:currentColor;fill-rule:nonzero;" d="M224.1 141c-63.6 0-114.9 51.3-114.9 114.9s51.3 114.9 114.9 114.9S339 319.5 339 255.9 287.7 141 224.1 141zm0 189.6c-41.1 0-74.7-33.5-74.7-74.7s33.5-74.7 74.7-74.7 74.7 33.5 74.7 74.7-33.6 74.7-74.7 74.7zm146.4-194.3c0 14.9-12 26.8-26.8 26.8-14.9 0-26.8-12-26.8-26.8s12-26.8 26.8-26.8 26.8 12 26.8 26.8zm76.1 27.2c-1.7-35.9-9.9-67.7-36.2-93.9-26.2-26.2-58-34.4-93.9-36.2-37-2.1-147.9-2.1-184.9 0-35.8 1.7-67.6 9.9-93.9 36.1s-34.4 58-36.2 93.9c-2.1 37-2.1 147.9 0 184.9 1.7 35.9 9.9 67.7 36.2 93.9s58 34.4 93.9 36.2c37 2.1 147.9 2.1 184.9 0 35.9-1.7 67.7-9.9 93.9-36.2 26.2-26.2 34.4-58 36.2-93.9 2.1-37 2.1-147.8 0-184.8zM398.8 388c-7.8 19.6-22.9 34.7-42.6 42.6-29.5 11.7-99.5 9-132.1 9s-102.7 2.6-132.1-9c-19.6-7.8-34.7-22.9-42.6-42.6-11.7-29.5-9-99.5-9-132.1s-2.6-102.7 9-132.1c7.8-19.6 22.9-34.7 42.6-42.6 29.5-11.7 99.5-9 132.1-9s102.7-2.6 132.1 9c19.6 7.8 34.7 22.9 42.6 42.6 11.7 29.5 9 99.5 9 132.1s2.7 102.7-9 132.1z"/>
    </symbol>
    
    <symbol id="facebook" viewBox="0 0 264 512">
        <path style="fill:currentColor;fill-rule:nonzero;" d="M76.7 512V283H0v-91h76.7v-71.7C76.7 42.4 124.3 0 193.8 0c33.3 0 61.9 2.5 70.2 3.6V85h-48.2c-37.8 0-45.1 18-45.1 44.3V192H256l-11.7 91h-73.6v229"/>
    </symbol>

    <symbol id="facebook-icon" viewBox="0 0 264 512">
        <path style="fill:currentColor;fill-rule:nonzero;" d="M76.7 512V283H0v-91h76.7v-71.7C76.7 42.4 124.3 0 193.8 0c33.3 0 61.9 2.5 70.2 3.6V85h-48.2c-37.8 0-45.1 18-45.1 44.3V192H256l-11.7 91h-73.6v229"/>
    </symbol>

    <symbol id="wordpress" viewBox="0 0 512 512">
        <path style="fill:currentColor;fill-rule:nonzero;" d="M256 8C119.3 8 8 119.2 8 256c0 136.7 111.3 248 248 248s248-111.3 248-248C504 119.2 392.7 8 256 8zM33 256c0-32.3 6.9-63 19.3-90.7l106.4 291.4C84.3 420.5 33 344.2 33 256zm223 223c-21.9 0-43-3.2-63-9.1l66.9-194.4 68.5 187.8c.5 1.1 1 2.1 1.6 3.1-23.1 8.1-48 12.6-74 12.6zm30.7-327.5c13.4-.7 25.5-2.1 25.5-2.1 12-1.4 10.6-19.1-1.4-18.4 0 0-36.1 2.8-59.4 2.8-21.9 0-58.7-2.8-58.7-2.8-12-.7-13.4 17.7-1.4 18.4 0 0 11.4 1.4 23.4 2.1l34.7 95.2L200.6 393l-81.2-241.5c13.4-.7 25.5-2.1 25.5-2.1 12-1.4 10.6-19.1-1.4-18.4 0 0-36.1 2.8-59.4 2.8-4.2 0-9.1-.1-14.4-.3C109.6 73 178.1 33 256 33c58 0 110.9 22.2 150.6 58.5-1-.1-1.9-.2-2.9-.2-21.9 0-37.4 19.1-37.4 39.6 0 18.4 10.6 33.9 21.9 52.3 8.5 14.8 18.4 33.9 18.4 61.5 0 19.1-7.3 41.2-17 72.1l-22.2 74.3-80.7-239.6zm81.4 297.2l68.1-196.9c12.7-31.8 17-57.2 17-79.9 0-8.2-.5-15.8-1.5-22.9 17.4 31.8 27.3 68.2 27.3 107 0 82.3-44.6 154.1-110.9 192.7z"/>
    </symbol>

    <symbol id="wordpress-icon" viewBox="0 0 512 512">
        <path style="fill:currentColor;fill-rule:nonzero;" d="M256 8C119.3 8 8 119.2 8 256c0 136.7 111.3 248 248 248s248-111.3 248-248C504 119.2 392.7 8 256 8zM33 256c0-32.3 6.9-63 19.3-90.7l106.4 291.4C84.3 420.5 33 344.2 33 256zm223 223c-21.9 0-43-3.2-63-9.1l66.9-194.4 68.5 187.8c.5 1.1 1 2.1 1.6 3.1-23.1 8.1-48 12.6-74 12.6zm30.7-327.5c13.4-.7 25.5-2.1 25.5-2.1 12-1.4 10.6-19.1-1.4-18.4 0 0-36.1 2.8-59.4 2.8-21.9 0-58.7-2.8-58.7-2.8-12-.7-13.4 17.7-1.4 18.4 0 0 11.4 1.4 23.4 2.1l34.7 95.2L200.6 393l-81.2-241.5c13.4-.7 25.5-2.1 25.5-2.1 12-1.4 10.6-19.1-1.4-18.4 0 0-36.1 2.8-59.4 2.8-4.2 0-9.1-.1-14.4-.3C109.6 73 178.1 33 256 33c58 0 110.9 22.2 150.6 58.5-1-.1-1.9-.2-2.9-.2-21.9 0-37.4 19.1-37.4 39.6 0 18.4 10.6 33.9 21.9 52.3 8.5 14.8 18.4 33.9 18.4 61.5 0 19.1-7.3 41.2-17 72.1l-22.2 74.3-80.7-239.6zm81.4 297.2l68.1-196.9c12.7-31.8 17-57.2 17-79.9 0-8.2-.5-15.8-1.5-22.9 17.4 31.8 27.3 68.2 27.3 107 0 82.3-44.6 154.1-110.9 192.7z"/>
    </symbol>

    <symbol id="twitter" viewBox="0 0 512 512">
        <path style="fill:currentColor;fill-rule:nonzero;" d="M459.37 151.716c.325 4.548.325 9.097.325 13.645 0 138.72-105.583 298.558-298.558 298.558-59.452 0-114.68-17.219-161.137-47.106 8.447.974 16.568 1.299 25.34 1.299 49.055 0 94.213-16.568 130.274-44.832-46.132-.975-84.792-31.188-98.112-72.772 6.498.974 12.995 1.624 19.818 1.624 9.421 0 18.843-1.3 27.614-3.573-48.081-9.747-84.143-51.98-84.143-102.985v-1.299c13.969 7.797 30.214 12.67 47.431 13.319-28.264-18.843-46.781-51.005-46.781-87.391 0-19.492 5.197-37.36 14.294-52.954 51.655 63.675 129.3 105.258 216.365 109.807-1.624-7.797-2.599-15.918-2.599-24.04 0-57.828 46.782-104.934 104.934-104.934 30.213 0 57.502 12.67 76.67 33.137 23.715-4.548 46.456-13.32 66.599-25.34-7.798 24.366-24.366 44.833-46.132 57.827 21.117-2.273 41.584-8.122 60.426-16.243-14.292 20.791-32.161 39.308-52.628 54.253z"/>
    </symbol>

    <symbol id="twitter-icon" viewBox="0 0 512 512">
        <path style="fill:currentColor;fill-rule:nonzero;" d="M459.37 151.716c.325 4.548.325 9.097.325 13.645 0 138.72-105.583 298.558-298.558 298.558-59.452 0-114.68-17.219-161.137-47.106 8.447.974 16.568 1.299 25.34 1.299 49.055 0 94.213-16.568 130.274-44.832-46.132-.975-84.792-31.188-98.112-72.772 6.498.974 12.995 1.624 19.818 1.624 9.421 0 18.843-1.3 27.614-3.573-48.081-9.747-84.143-51.98-84.143-102.985v-1.299c13.969 7.797 30.214 12.67 47.431 13.319-28.264-18.843-46.781-51.005-46.781-87.391 0-19.492 5.197-37.36 14.294-52.954 51.655 63.675 129.3 105.258 216.365 109.807-1.624-7.797-2.599-15.918-2.599-24.04 0-57.828 46.782-104.934 104.934-104.934 30.213 0 57.502 12.67 76.67 33.137 23.715-4.548 46.456-13.32 66.599-25.34-7.798 24.366-24.366 44.833-46.132 57.827 21.117-2.273 41.584-8.122 60.426-16.243-14.292 20.791-32.161 39.308-52.628 54.253z"/>
    </symbol>

    <symbol id="youtube" viewBox="0 0 576 512">
        <path style="fill:currentColor;fill-rule:nonzero;" d="M549.655 124.083c-6.281-23.65-24.787-42.276-48.284-48.597C458.781 64 288 64 288 64S117.22 64 74.629 75.486c-23.497 6.322-42.003 24.947-48.284 48.597-11.412 42.867-11.412 132.305-11.412 132.305s0 89.438 11.412 132.305c6.281 23.65 24.787 41.5 48.284 47.821C117.22 448 288 448 288 448s170.78 0 213.371-11.486c23.497-6.321 42.003-24.171 48.284-47.821 11.412-42.867 11.412-132.305 11.412-132.305s0-89.438-11.412-132.305zm-317.51 213.508V175.185l142.739 81.205-142.739 81.201z"/>
    </symbol>

    <symbol id="youtube-icon" viewBox="0 0 576 512">
         <path style="fill:currentColor;fill-rule:nonzero;" d="M549.655 124.083c-6.281-23.65-24.787-42.276-48.284-48.597C458.781 64 288 64 288 64S117.22 64 74.629 75.486c-23.497 6.322-42.003 24.947-48.284 48.597-11.412 42.867-11.412 132.305-11.412 132.305s0 89.438 11.412 132.305c6.281 23.65 24.787 41.5 48.284 47.821C117.22 448 288 448 288 448s170.78 0 213.371-11.486c23.497-6.321 42.003-24.171 48.284-47.821 11.412-42.867 11.412-132.305 11.412-132.305s0-89.438-11.412-132.305zm-317.51 213.508V175.185l142.739 81.205-142.739 81.201z"/>
    </symbol>

    <symbol id="linkedin" viewBox="0 0 448.1 512">
        <path style="fill:currentColor;fill-rule:nonzero;" d="M100.3 448H7.4V148.9h92.9V448zM53.8 108.1C24.1 108.1 0 83.5 0 53.8S24.1 0 53.8 0s53.8 24.1 53.8 53.8-24.1 54.3-53.8 54.3zM448 448h-92.7V302.4c0-34.7-.7-79.2-48.3-79.2-48.3 0-55.7 37.7-55.7 76.7V448h-92.8V148.9h89.1v40.8h1.3c12.4-23.5 42.7-48.3 87.9-48.3 94 0 111.3 61.9 111.3 142.3V448h-.1z"/>
    </symbol>

    <symbol id="linkedin-icon" viewBox="0 0 448.1 512">
        <path style="fill:currentColor;fill-rule:nonzero;" d="M100.3 448H7.4V148.9h92.9V448zM53.8 108.1C24.1 108.1 0 83.5 0 53.8S24.1 0 53.8 0s53.8 24.1 53.8 53.8-24.1 54.3-53.8 54.3zM448 448h-92.7V302.4c0-34.7-.7-79.2-48.3-79.2-48.3 0-55.7 37.7-55.7 76.7V448h-92.8V148.9h89.1v40.8h1.3c12.4-23.5 42.7-48.3 87.9-48.3 94 0 111.3 61.9 111.3 142.3V448h-.1z"/>
    </symbol>

    <symbol id="google" viewBox="13 13 22 22">
        <path style="fill:currentColor;fill-rule:nonzero;" d="M24.001,25.71 L24.001,22.362 L32.425,22.362 C32.551,22.929 32.65,23.46 32.65,24.207 C32.65,29.346 29.203,33 24.01,33 C19.042,33 15.01,28.968 15.01,24 C15.01,19.032 19.042,15 24.01,15 C26.44,15 28.474,15.891 30.031,17.349 L27.475,19.833 C26.827,19.221 25.693,18.501 24.01,18.501 C21.031,18.501 18.601,20.976 18.601,24.009 C18.601,27.042 21.031,29.517 24.01,29.517 C27.457,29.517 28.726,27.132 28.96,25.719 L24.001,25.719 L24.001,25.71 Z"/>
    </symbol>

    <symbol id="google-icon" viewBox="13 13 22 22">
        <path style="fill:currentColor;fill-rule:nonzero;" d="M24.001,25.71 L24.001,22.362 L32.425,22.362 C32.551,22.929 32.65,23.46 32.65,24.207 C32.65,29.346 29.203,33 24.01,33 C19.042,33 15.01,28.968 15.01,24 C15.01,19.032 19.042,15 24.01,15 C26.44,15 28.474,15.891 30.031,17.349 L27.475,19.833 C26.827,19.221 25.693,18.501 24.01,18.501 C21.031,18.501 18.601,20.976 18.601,24.009 C18.601,27.042 21.031,29.517 24.01,29.517 C27.457,29.517 28.726,27.132 28.96,25.719 L24.001,25.719 L24.001,25.71 Z"/>
    </symbol>

    <symbol id="email" viewBox="0 0 512 512">
        <path style="fill:currentColor;fill-rule:nonzero;" d="M464 64H48C21.49 64 0 85.49 0 112v288c0 26.51 21.49 48 48 48h416c26.51 0 48-21.49 48-48V112c0-26.51-21.49-48-48-48zm0 48v40.805c-22.422 18.259-58.168 46.651-134.587 106.49-16.841 13.247-50.201 45.072-73.413 44.701-23.208.375-56.579-31.459-73.413-44.701C106.18 199.465 70.425 171.067 48 152.805V112h416zM48 400V214.398c22.914 18.251 55.409 43.862 104.938 82.646 21.857 17.205 60.134 55.186 103.062 54.955 42.717.231 80.509-37.199 103.053-54.947 49.528-38.783 82.032-64.401 104.947-82.653V400H48z"/>
    </symbol>

    <symbol id="email-icon" viewBox="0 0 512 512">
        <path style="fill:currentColor;fill-rule:nonzero;" d="M464 64H48C21.49 64 0 85.49 0 112v288c0 26.51 21.49 48 48 48h416c26.51 0 48-21.49 48-48V112c0-26.51-21.49-48-48-48zm0 48v40.805c-22.422 18.259-58.168 46.651-134.587 106.49-16.841 13.247-50.201 45.072-73.413 44.701-23.208.375-56.579-31.459-73.413-44.701C106.18 199.465 70.425 171.067 48 152.805V112h416zM48 400V214.398c22.914 18.251 55.409 43.862 104.938 82.646 21.857 17.205 60.134 55.186 103.062 54.955 42.717.231 80.509-37.199 103.053-54.947 49.528-38.783 82.032-64.401 104.947-82.653V400H48z"/>
    </symbol>

    <symbol id="pinterest" viewBox="0 0 243 243">
        <path style="fill:currentColor;fill-rule:nonzero;" d="M121.5 0C54.4 0 0 54.4 0 121.5 0 173 32 217 77.2 234.7c-1.1-9.6-2-24.4.4-34.9 2.2-9.5 14.2-60.4 14.2-60.4s-3.6-7.3-3.6-18c0-16.9 9.8-29.5 22-29.5 10.4 0 15.4 7.8 15.4 17.1 0 10.4-6.6 26-10.1 40.5-2.9 12.1 6.1 22 18 22 21.6 0 38.2-22.8 38.2-55.6 0-29.1-20.9-49.4-50.8-49.4-34.6 0-54.9 25.9-54.9 52.7 0 10.4 4 21.6 9 27.7 1 1.2 1.1 2.3.8 3.5-.9 3.8-3 12.1-3.4 13.8-.5 2.2-1.8 2.7-4.1 1.6-15.2-7.1-24.7-29.2-24.7-47.1 0-38.3 27.8-73.5 80.3-73.5 42.1 0 74.9 30 74.9 70.2 0 41.9-26.4 75.6-63 75.6-12.3 0-23.9-6.4-27.8-14 0 0-6.1 23.2-7.6 28.9-2.7 10.6-10.1 23.8-15.1 31.9 11.4 3.5 23.4 5.4 36 5.4 67.1 0 121.5-54.4 121.5-121.5C243 54.4 188.6 0 121.5 0z"/>
    </symbol>

    <symbol id="tiktok" viewBox="0 0 448 512">
        <path  style="fill:currentColor;fill-rule:nonzero;" d="M448,209.91a210.06,210.06,0,0,1-122.77-39.25V349.38A162.55,162.55,0,1,1,185,188.31V278.2a74.62,74.62,0,1,0,52.23,71.18V0l88,0a121.18,121.18,0,0,0,1.86,22.17h0A122.18,122.18,0,0,0,381,102.39a121.43,121.43,0,0,0,67,20.14Z"/>
    </symbol>

     <symbol id="twitch" viewBox="0 0 512 512">
        <path  style="fill:currentColor;fill-rule:nonzero;" d="M391.17,103.47H352.54v109.7h38.63ZM285,103H246.37V212.75H285ZM120.83,0,24.31,91.42V420.58H140.14V512l96.53-91.42h77.25L487.69,256V0ZM449.07,237.75l-77.22,73.12H294.61l-67.6,64v-64H140.14V36.58H449.07Z"/>
    </symbol>

     <symbol id="weibo" viewBox="0 0 448 512">
        <path  style="fill:currentColor;fill-rule:nonzero;" d="M407 177.6c7.6-24-13.4-46.8-37.4-41.7-22 4.8-28.8-28.1-7.1-32.8 50.1-10.9 92.3 37.1 76.5 84.8-6.8 21.2-38.8 10.8-32-10.3zM214.8 446.7C108.5 446.7 0 395.3 0 310.4c0-44.3 28-95.4 76.3-143.7C176 67 279.5 65.8 249.9 161c-4 13.1 12.3 5.7 12.3 6 79.5-33.6 140.5-16.8 114 51.4-3.7 9.4 1.1 10.9 8.3 13.1 135.7 42.3 34.8 215.2-169.7 215.2zm143.7-146.3c-5.4-55.7-78.5-94-163.4-85.7-84.8 8.6-148.8 60.3-143.4 116s78.5 94 163.4 85.7c84.8-8.6 148.8-60.3 143.4-116zM347.9 35.1c-25.9 5.6-16.8 43.7 8.3 38.3 72.3-15.2 134.8 52.8 111.7 124-7.4 24.2 29.1 37 37.4 12 31.9-99.8-55.1-195.9-157.4-174.3zm-78.5 311c-17.1 38.8-66.8 60-109.1 46.3-40.8-13.1-58-53.4-40.3-89.7 17.7-35.4 63.1-55.4 103.4-45.1 42 10.8 63.1 50.2 46 88.5zm-86.3-30c-12.9-5.4-30 .3-38 12.9-8.3 12.9-4.3 28 8.6 34 13.1 6 30.8.3 39.1-12.9 8-13.1 3.7-28.3-9.7-34zm32.6-13.4c-5.1-1.7-11.4.6-14.3 5.4-2.9 5.1-1.4 10.6 3.7 12.9 5.1 2 11.7-.3 14.6-5.4 2.8-5.2 1.1-10.9-4-12.9z"/>
    </symbol>

    <symbol id="wechat" viewBox="0 0 1024 1024">
        <path  style="fill:currentColor;fill-rule:nonzero;" d="M760.0001,575.9995 C778.7781,575.9995 794.0001,560.7775 794.0001,541.9995 C794.0001,523.2225 778.7781,507.9995 760.0001,507.9995 C741.2221,507.9995 726.0001,523.2225 726.0001,541.9995 C726.0001,560.7775 741.2221,575.9995 760.0001,575.9995 L760.0001,575.9995 Z M594.0001,575.9995 C612.7781,575.9995 628.0001,560.7775 628.0001,541.9995 C628.0001,523.2225 612.7781,507.9995 594.0001,507.9995 C575.2221,507.9995 560.0001,523.2225 560.0001,541.9995 C560.0001,560.7775 575.2221,575.9995 594.0001,575.9995 L594.0001,575.9995 Z M499.0001,378.9995 C521.0911,378.9995 539.0001,361.0915 539.0001,338.9995 C539.0001,316.9085 521.0911,298.9995 499.0001,298.9995 C476.9081,298.9995 459.0001,316.9085 459.0001,338.9995 C459.0001,361.0915 476.9081,378.9995 499.0001,378.9995 L499.0001,378.9995 Z M298.0001,378.9995 C320.0911,378.9995 338.0001,361.0915 338.0001,338.9995 C338.0001,316.9085 320.0911,298.9995 298.0001,298.9995 C275.9091,298.9995 258.0001,316.9085 258.0001,338.9995 C258.0001,361.0915 275.9091,378.9995 298.0001,378.9995 L298.0001,378.9995 Z M776.8571,807.1595 C772.6091,804.6995 767.5371,804.1385 762.8391,805.5585 C736.2041,813.6095 707.4661,817.9995 677.5001,817.9995 C539.1531,817.9995 427.0001,724.4275 427.0001,608.9995 C427.0001,493.5725 539.1531,399.9995 677.5001,399.9995 C815.8471,399.9995 928.0001,493.5725 928.0001,608.9995 C928.0001,672.7565 893.7831,729.8445 839.8361,768.1795 C835.5081,771.2555 833.5431,776.6935 834.8891,781.8295 L846.6811,826.8135 C850.2121,840.2815 843.2421,845.5925 831.1931,838.6175 L776.8571,807.1595 L776.8571,807.1595 Z M297.5531,655.4165 C329.2491,664.8575 363.4031,669.9995 399.0001,669.9995 C404.4311,669.9995 409.8271,669.8805 415.1871,669.6435 C408.5501,650.0365 405.0001,629.3615 405.0001,607.9995 C405.0001,482.0785 528.3461,379.9995 680.5001,379.9995 C685.8201,379.9995 691.1041,380.1245 696.3491,380.3705 C673.7761,260.6095 549.2431,168.9995 399.0001,168.9995 C232.7621,168.9995 98.0001,281.1525 98.0001,419.4995 C98.0001,495.5515 138.7241,563.6875 203.0131,609.6295 C209.0661,613.9545 211.8381,621.5525 209.9121,628.7395 L195.7641,681.5305 C191.4941,697.4635 199.6551,703.6955 213.9001,695.3775 L278.3531,657.7455 C284.1591,654.3555 291.1091,653.4965 297.5531,655.4165 Z"/></symbol>

    <symbol id="qrcode-icon" viewBox="0 0 16 16">
        <path style="fill:currentColor;fill-rule:nonzero;" d="M 2.5 1 C 1.6774686 1 1 1.6774686 1 2.5 L 1 4.5 C 1 5.3225314 1.6774686 6 2.5 6 L 3 6 L 3 7 L 4 7 L 4 6 L 4.5 6 C 5.3225314 6 6 5.3225314 6 4.5 L 6 2.5 C 6 1.6774686 5.3225314 1 4.5 1 L 2.5 1 z M 4 7 L 4 8 L 5 8 L 5 7 L 4 7 z M 4 8 L 3 8 L 3 9 L 4 9 L 4 8 z M 3 8 L 3 7 L 2 7 L 2 8 L 3 8 z M 11.5 1 C 10.677469 1 10 1.6774686 10 2.5 L 10 4.5 C 10 5.3225314 10.677469 6 11.5 6 L 12 6 L 12 7 L 13 7 L 13 6 L 13.5 6 C 14.322531 6 15 5.3225314 15 4.5 L 15 2.5 C 15 1.6774686 14.322531 1 13.5 1 L 11.5 1 z M 13 7 L 13 8 L 14 8 L 14 7 L 13 7 z M 13 8 L 12 8 L 12 9 L 13 9 L 13 8 z M 13 9 L 13 10 L 14 10 L 14 9 L 13 9 z M 13 10 L 12 10 L 12 11 L 13 11 L 13 10 z M 12 10 L 12 9 L 11 9 L 11 10 L 12 10 z M 2.5 2 L 4.5 2 C 4.7814686 2 5 2.2185314 5 2.5 L 5 4.5 C 5 4.7814686 4.7814686 5 4.5 5 L 2.5 5 C 2.2185314 5 2 4.7814686 2 4.5 L 2 2.5 C 2 2.2185314 2.2185314 2 2.5 2 z M 8 2 L 8 3 L 7 3 L 7 4 L 8 4 L 8 5 L 9 5 L 9 2 L 8 2 z M 11.5 2 L 13.5 2 C 13.781469 2 14 2.2185314 14 2.5 L 14 4.5 C 14 4.7814686 13.781469 5 13.5 5 L 11.5 5 C 11.218531 5 11 4.7814686 11 4.5 L 11 2.5 C 11 2.2185314 11.218531 2 11.5 2 z M 3 3 L 3 4 L 4 4 L 4 3 L 3 3 z M 12 3 L 12 4 L 13 4 L 13 3 L 12 3 z M 6 6 L 6 7 L 9 7 L 9 8 L 10 8 L 10 7 L 10 6 L 6 6 z M 7 8 L 7 9 L 6 9 L 6 10 L 10 10 L 10 9 L 8 9 L 8 8 L 7 8 z M 2.5 10 C 1.6774686 10 1 10.677469 1 11.5 L 1 13.5 C 1 14.322531 1.6774686 15 2.5 15 L 4.5 15 C 5.3225314 15 6 14.322531 6 13.5 L 6 11.5 C 6 10.677469 5.3225314 10 4.5 10 L 2.5 10 z M 2.5 11 L 4.5 11 C 4.7814686 11 5 11.218531 5 11.5 L 5 13.5 C 5 13.781469 4.7814686 14 4.5 14 L 2.5 14 C 2.2185314 14 2 13.781469 2 13.5 L 2 11.5 C 2 11.218531 2.2185314 11 2.5 11 z M 7 11 L 7 14 L 8 14 L 8 11 L 7 11 z M 3 12 L 3 13 L 4 13 L 4 12 L 3 12 z M 10 12 L 10 13 L 11 13 L 11 12 L 10 12 z M 11 13 L 11 14 L 12 14 L 12 13 L 11 13 z M 12 13 L 13 13 L 13 12 L 12 12 L 12 13 z M 13 13 L 13 14 L 14 14 L 14 13 L 13 13 z"/>
    </symbol>

    <symbol id="okta" viewBox="0 0 120 36">
        <path style="fill:currentColor;fill-rule:nonzero;" d="M12.58 8.454C5.632 8.454 0 14.086 0 21.034s5.632 12.58 12.58 12.58 12.58-5.632 12.58-12.58-5.632-12.58-12.58-12.58zm0 18.87c-3.486 0-6.3-2.804-6.3-6.3a6.28 6.28 0 0 1 6.3-6.3 6.28 6.28 0 0 1 6.3 6.3 6.28 6.28 0 0 1-6.3 6.3zm22.075-2.083c0-1.002 1.202-1.482 1.883-.76l8.373 8.734c.08.08.16.2.44.28.12.04.32.04.52.04h5.69c1.002 0 1.322-1.162.84-1.763l-9.415-9.615-.48-.52c-1.082-1.282-.962-1.763.28-3.085l7.492-8.293c.48-.6.16-1.763-.88-1.763H44.27c-.2 0-.36 0-.48.04-.32.08-.4.2-.48.28a5296.29 5296.29 0 0 0-6.69 7.212c-.68.76-1.923.24-1.923-.76V1.002c0-.72-.6-1.002-1.082-1.002h-4.207c-.72 0-1.082.48-1.082.92v31.65c0 .72.6.92 1.082.92h4.207c.64 0 1.082-.48 1.082-.962v-.32zm34.295 7.17l-.44-4.207c-.08-.56-.6-.962-1.162-.88l-.962.08c-3.365 0-6.1-2.644-6.25-5.93v-5.49c0-.68.48-1.202 1.162-1.202h5.61A1.03 1.03 0 0 0 67.91 13.7V9.737c0-.76-.48-1.202-.92-1.202h-5.65c-.64 0-1.202-.48-1.202-1.122v-6.37c0-.4-.28-1.002-1.082-1.002h-4.167c-.52 0-1.042.32-1.042.962v20.473c.16 6.77 5.73 12.22 12.58 12.22a11.92 11.92 0 0 0 1.683-.12 1.07 1.07 0 0 0 .84-1.162zm30.288-5.288c-3.566 0-4.087-1.282-4.087-6.05V9.575c0-.4-.28-1.082-1.082-1.082h-4.207c-.52 0-1.082.4-1.082 1.082v.52c-1.843-1.042-3.926-1.643-6.2-1.643-6.948 0-12.58 5.632-12.58 12.58a12.55 12.55 0 0 0 12.58 12.58c3.125 0 5.97-1.122 8.173-3.005 1.202 1.803 3.085 3.005 6.05 3.005.52 0 3.205.08 3.205-1.162v-4.487c-.04-.4-.36-.84-.76-.84zm-16.667.2c-3.486 0-6.3-2.804-6.3-6.3a6.28 6.28 0 1 1 12.6 0c-.04 3.486-2.845 6.3-6.3 6.3z"/>
    </symbol>

    <symbol id="okta-icon" viewBox="0 0 120 36">
        <path style="fill:currentColor;fill-rule:nonzero;" d="M32 0C14.37 0 0 14.267 0 32s14.268 32 32 32 32-14.268 32-32S49.63 0 32 0zm0 48c-8.866 0-16-7.134-16-16s7.134-16 16-16 16 7.134 16 16-7.134 16-16 16z"/>
    </symbol>

    <symbol id="adfs" viewBox="0 0 87 65">
        <path d="M0 0h30.412v30.412H0z" fill="#f25022"/>
        <path d="M33.588 0H64v30.412H33.588z" fill="#7fba00"/>
        <path d="M0 33.588h30.412V64H0z" fill="#00a4ef"/>
        <path d="M33.588 33.588H64V64H33.588z" fill="#ffb900"/>
    </symbol>

    <symbol id="adfs-icon" viewBox="0 0 87 65">
        <path d="M0 0h30.412v30.412H0z" fill="#f25022"/>
        <path d="M33.588 0H64v30.412H33.588z" fill="#7fba00"/>
        <path d="M0 33.588h30.412V64H0z" fill="#00a4ef"/>
        <path d="M33.588 33.588H64V64H33.588z" fill="#ffb900"/>
    </symbol>
</svg>
